<mxfile host="65bd71144e">
    <diagram id="rVw6UCLpTxwV_NXc_zcv" name="Seite-1">
        <mxGraphModel dx="1081" dy="917" grid="1" gridSize="10" guides="1" tooltips="1" connect="1" arrows="1" fold="1" page="1" pageScale="1" pageWidth="50" pageHeight="50" math="0" shadow="0">
            <root>
                <mxCell id="0"/>
                <mxCell id="1" parent="0"/>
                <mxCell id="2" value="Malware&lt;br&gt;" style="rounded=0;whiteSpace=wrap;html=1;" parent="1" vertex="1">
                    <mxGeometry x="-40" y="20" width="710" height="40" as="geometry"/>
                </mxCell>
                <mxCell id="3" value="&lt;span&gt;Exfiltration / Communication&lt;/span&gt;" style="rounded=0;whiteSpace=wrap;html=1;" parent="1" vertex="1">
                    <mxGeometry x="-40" y="-30" width="170" height="40" as="geometry"/>
                </mxCell>
                <mxCell id="4" value="Command and Control" style="rounded=0;whiteSpace=wrap;html=1;" parent="1" vertex="1">
                    <mxGeometry x="-40" y="-290" width="440" height="40" as="geometry"/>
                </mxCell>
                <mxCell id="5" value="Communication&lt;br&gt;channel" style="shape=cylinder3;whiteSpace=wrap;html=1;boundedLbl=1;backgroundOutline=1;size=5.5103912353515625;horizontal=0;" parent="1" vertex="1">
                    <mxGeometry x="-20" y="-190" width="40" height="150" as="geometry"/>
                </mxCell>
                <mxCell id="6" value="Defacement" style="rounded=0;whiteSpace=wrap;html=1;" parent="1" vertex="1">
                    <mxGeometry x="137.5" y="-30" width="85" height="40" as="geometry"/>
                </mxCell>
                <mxCell id="7" value="Privilege escalation" style="rounded=0;whiteSpace=wrap;html=1;" parent="1" vertex="1">
                    <mxGeometry x="230" y="-30" width="120" height="40" as="geometry"/>
                </mxCell>
                <mxCell id="8" value="Persistence" style="rounded=0;whiteSpace=wrap;html=1;" parent="1" vertex="1">
                    <mxGeometry x="355" y="-30" width="85" height="40" as="geometry"/>
                </mxCell>
                <mxCell id="9" value="Reverse shell" style="rounded=0;whiteSpace=wrap;html=1;" parent="1" vertex="1">
                    <mxGeometry x="450" y="-30" width="90" height="40" as="geometry"/>
                </mxCell>
                <mxCell id="10" value="Anti - Av" style="rounded=0;whiteSpace=wrap;html=1;" parent="1" vertex="1">
                    <mxGeometry x="550" y="-30" width="120" height="40" as="geometry"/>
                </mxCell>
                <mxCell id="11" value="Exfiltrated Data" style="rounded=1;whiteSpace=wrap;html=1;" parent="1" vertex="1">
                    <mxGeometry x="195" y="-200" width="200" height="45" as="geometry"/>
                </mxCell>
                <mxCell id="12" value="Communication" style="rounded=0;whiteSpace=wrap;html=1;" parent="1" vertex="1">
                    <mxGeometry x="-40" y="-240" width="95" height="40" as="geometry"/>
                </mxCell>
                <mxCell id="13" value="Store Data" style="rounded=0;whiteSpace=wrap;html=1;" parent="1" vertex="1">
                    <mxGeometry x="190" y="-242.5" width="210" height="35" as="geometry"/>
                </mxCell>
            </root>
        </mxGraphModel>
    </diagram>
</mxfile>